<?xml version="1.0" encoding="utf-8"?>
<!-- Generator: Adobe Illustrator 26.3.1, SVG Export Plug-In . SVG Version: 6.00 Build 0)  -->
<svg version="1.1" id="Ebene_1" xmlns="http://www.w3.org/2000/svg" xmlns:xlink="http://www.w3.org/1999/xlink" x="0px" y="0px"
	 viewBox="0 0 136 37" style="enable-background:new 0 0 136 37;" xml:space="preserve">
<style type="text/css">
	.st0{clip-path:url(#SVGID_00000036953762226072015460000007457829757781886395_);}
	.st1{fill-rule:evenodd;clip-rule:evenodd;fill:#0B0B0B;}
	.st2{fill:#0B0B0B;}
</style>
<g>
	<defs>
		<rect id="SVGID_1_" x="-8.2" y="-4.5" width="144" height="46"/>
	</defs>
	<clipPath id="SVGID_00000142176939564034333430000008926526708854070165_">
		<use xlink:href="#SVGID_1_"  style="overflow:visible;"/>
	</clipPath>
	<g style="clip-path:url(#SVGID_00000142176939564034333430000008926526708854070165_);">
		<g>
			<path class="st1" d="M4.2,1.9C9,1.6,13.8,1.3,18.6,1c4.8-0.3,9.6-0.6,14.4-0.9C34.1,0,35.1,1,35.1,2.4c0.3,5.4,0.6,10.7,0.9,16.1
				c0.3,5.4,0.6,10.7,0.9,16.1c0.1,1.3-0.9,2.3-2.1,2.3l-1.7-0.1c-4.8-0.2-9.6-0.4-14.4-0.6C13.3,36,7.9,35.8,2.5,35.6
				c-1.2,0-2.2-1.1-2.1-2.2l0.9-14.6L2.1,4.2C2.2,3,3.1,1.9,4.2,1.9L4.2,1.9z M6.9,30.3c0.2,0.1,0.3,0.2,0.5,0.2h4.2
				c0.6,0,1-0.2,1.1-0.7l1.3-3.5h9.1l1.3,3.5c0.2,0.5,0.5,0.7,1.1,0.7h4.2c0.2,0,0.4-0.1,0.5-0.2c0.2-0.2,0.2-0.3,0.2-0.5l-0.1-0.3
				l-8-22c-0.1-0.3-0.2-0.5-0.4-0.7c-0.2-0.2-0.5-0.3-0.9-0.3h-5.1c-0.4,0-0.7,0.1-0.9,0.3s-0.4,0.4-0.4,0.7l-8,22
				c0,0.1,0,0.2,0,0.3C6.7,30,6.8,30.1,6.9,30.3L6.9,30.3z"/>
			<path class="st2" d="M22.6,22l-4-11.3l-4,11.3H22.6L22.6,22z"/>
			<path class="st2" d="M44.5,28.1c-0.1,0-0.2,0-0.4-0.2c-0.1-0.1-0.2-0.2-0.2-0.4c0-0.1,0-0.2,0-0.2l5.7-15.6
				c0-0.2,0.2-0.4,0.3-0.5s0.4-0.2,0.6-0.2h3.6c0.3,0,0.5,0.1,0.6,0.2c0.2,0.1,0.3,0.3,0.3,0.5l5.7,15.6l0.1,0.2
				c0,0.1-0.1,0.2-0.2,0.4c-0.1,0.1-0.2,0.2-0.4,0.2h-3c-0.4,0-0.7-0.2-0.8-0.5l-1-2.5h-6.5l-0.9,2.5c-0.1,0.3-0.4,0.5-0.8,0.5H44.5
				L44.5,28.1z M54.7,21.6l-2.2-6.4l-2.2,6.4H54.7L54.7,21.6z"/>
			<path class="st2" d="M63.1,28.1c-0.2,0-0.3-0.1-0.4-0.2c-0.1-0.1-0.2-0.3-0.2-0.4V16c0-0.2,0.1-0.3,0.2-0.4s0.3-0.2,0.4-0.2h2.8
				c0.2,0,0.3,0.1,0.4,0.2c0.1,0.1,0.2,0.2,0.2,0.4v1c0.9-1,2.1-1.6,3.6-1.6h1.1c0.2,0,0.3,0.1,0.4,0.2s0.2,0.3,0.2,0.4v2.5
				c0,0.2-0.1,0.3-0.2,0.4c-0.1,0.1-0.3,0.2-0.4,0.2h-2.3c-0.7,0-1.2,0.2-1.6,0.6c-0.4,0.4-0.5,0.9-0.5,1.5v6.2
				c0,0.2-0.1,0.3-0.2,0.4c-0.1,0.1-0.3,0.2-0.4,0.2L63.1,28.1L63.1,28.1z"/>
			<path class="st2" d="M78,28.1c-0.2,0-0.4,0-0.5-0.2c-0.1-0.1-0.2-0.3-0.3-0.5l-4.6-11.3L72.5,16c0-0.1,0.1-0.3,0.2-0.4
				c0.1-0.1,0.2-0.2,0.4-0.2h2.7c0.4,0,0.6,0.2,0.7,0.5l2.7,7.5l2.8-7.5c0.1-0.3,0.3-0.5,0.7-0.5h2.7c0.2,0,0.3,0.1,0.4,0.2
				C86,15.7,86,15.8,86,16L86,16.2l-4.6,11.3c-0.1,0.2-0.2,0.4-0.3,0.5c-0.1,0.1-0.3,0.2-0.5,0.2L78,28.1L78,28.1z"/>
			<path class="st2" d="M91.1,28.3c-0.9,0-1.6-0.2-2.3-0.5c-0.7-0.3-1.2-0.8-1.7-1.4c-0.4-0.6-0.6-1.2-0.6-1.9c0-1.1,0.4-2,1.4-2.7
				c0.9-0.7,2.2-1.1,3.8-1.4l3-0.5v-0.3c0-0.6-0.1-1.1-0.4-1.4s-0.7-0.4-1.3-0.4c-0.4,0-0.7,0.1-0.9,0.2c-0.2,0.1-0.5,0.3-0.8,0.5
				c-0.2,0.2-0.4,0.3-0.5,0.4c-0.1,0.1-0.1,0.2-0.3,0.2h-2.6c-0.2,0-0.3,0-0.4-0.1c-0.1-0.1-0.1-0.2-0.1-0.4c0-0.4,0.2-0.9,0.6-1.5
				c0.4-0.5,1.1-1,1.9-1.4c0.9-0.4,1.9-0.6,3.2-0.6c2,0,3.5,0.5,4.4,1.3c0.9,0.9,1.4,2.1,1.4,3.5v7.4c0,0.2-0.1,0.3-0.2,0.4
				c-0.1,0.1-0.3,0.2-0.4,0.2h-2.8c-0.2,0-0.3-0.1-0.4-0.2c-0.1-0.1-0.2-0.3-0.2-0.4v-0.9c-0.3,0.5-0.9,0.9-1.5,1.2
				C92.7,28.2,92,28.3,91.1,28.3L91.1,28.3z M92.3,25.5c0.7,0,1.3-0.2,1.8-0.7c0.5-0.5,0.7-1.2,0.7-2.1v-0.3l-2.1,0.4
				c-1.4,0.3-2.2,0.8-2.2,1.5c0,0.4,0.2,0.7,0.5,1C91.4,25.4,91.8,25.5,92.3,25.5L92.3,25.5z"/>
			<path class="st2" d="M102.2,28.1c-0.2,0-0.3-0.1-0.4-0.2c-0.1-0.1-0.2-0.3-0.2-0.4v-16c0-0.2,0.1-0.3,0.2-0.4
				c0.1-0.1,0.3-0.2,0.4-0.2h2.9c0.2,0,0.3,0.1,0.4,0.2c0.1,0.1,0.2,0.3,0.2,0.4v16c0,0.2-0.1,0.3-0.2,0.4c-0.1,0.1-0.3,0.2-0.4,0.2
				L102.2,28.1L102.2,28.1z"/>
			<path class="st2" d="M114.5,28.3c-2,0-3.6-0.5-4.6-1.4c-1.1-1-1.7-2.3-1.8-4c0-0.2,0-0.6,0-1.1s0-0.9,0-1.1c0.1-1.7,0.7-3,1.8-4
				c1.1-1,2.6-1.5,4.6-1.5s3.5,0.5,4.6,1.5c1.1,1,1.7,2.3,1.8,4c0,0.2,0,0.6,0,1.1s0,0.9,0,1.1c-0.1,1.7-0.7,3.1-1.8,4
				C118.1,27.8,116.6,28.3,114.5,28.3z M114.5,25.4c0.7,0,1.2-0.2,1.6-0.6c0.3-0.4,0.5-1.1,0.6-2c0-0.2,0-0.5,0-1s0-0.8,0-1
				c-0.1-0.9-0.2-1.5-0.6-2c-0.3-0.4-0.9-0.7-1.6-0.7c-1.3,0-2.1,0.9-2.1,2.6l0,1l0,1c0,0.9,0.2,1.5,0.6,2
				C113.3,25.1,113.8,25.3,114.5,25.4L114.5,25.4z"/>
			<path class="st2" d="M129.3,28.3c-2,0-3.6-0.5-4.6-1.4c-1.1-1-1.7-2.3-1.8-4c0-0.2,0-0.6,0-1.1s0-0.9,0-1.1c0.1-1.7,0.7-3,1.8-4
				c1.1-1,2.6-1.5,4.6-1.5c1.9,0,3.5,0.5,4.6,1.5c1.1,1,1.7,2.3,1.8,4c0,0.2,0,0.6,0,1.1s0,0.9,0,1.1c-0.1,1.7-0.7,3.1-1.8,4
				C132.9,27.8,131.4,28.3,129.3,28.3L129.3,28.3z M129.3,25.4c0.7,0,1.2-0.2,1.6-0.6c0.3-0.4,0.5-1.1,0.6-2c0-0.2,0-0.5,0-1
				s0-0.8,0-1c-0.1-0.9-0.2-1.5-0.6-2c-0.3-0.4-0.9-0.7-1.6-0.7c-1.3,0-2.1,0.9-2.1,2.6l0,1l0,1c0,0.9,0.2,1.5,0.6,2
				C128.1,25.1,128.6,25.3,129.3,25.4L129.3,25.4z"/>
		</g>
	</g>
</g>
</svg>
