<?xml version="1.0" encoding="utf-8"?>
<!-- Generator: Adobe Illustrator 24.2.1, SVG Export Plug-In . SVG Version: 6.00 Build 0)  -->
<svg version="1.1" id="Layer_1" xmlns="http://www.w3.org/2000/svg" xmlns:xlink="http://www.w3.org/1999/xlink" x="0px" y="0px"
	 viewBox="0 0 476.8 44.3" style="enable-background:new 0 0 476.8 44.3;" xml:space="preserve">
<style type="text/css">
	.st0{fill:#005A96;}
</style>
<g>
	<path class="st0" d="M0,29.7h15.4c0,0,0.7,3.2,4.8,2.9h28.5c0,0,2.6,0.2,2.6-2.5c0-2.9-2.5-2.6-2.5-2.6H15.3
		C9.8,27.5,1.4,23.9,1.4,13c0,0,0.9-12.9,12.4-12.9h37.5c0,0,13.6-0.2,14.8,14.1H51.2c0,0-0.7-2.6-2.9-2.6H18.9c0,0-2.8,0.1-2.8,2.5
		c0,0-0.3,2.5,2.6,2.5h32.3c0,0,14.9-0.4,15.3,13.8c0,0,0.8,13.8-15.3,13.8H14.8C14.8,44.2,0,44.3,0,29.7"/>
</g>
<polygon class="st0" points="69.4,0.1 69.4,11.7 94.8,11.7 94.8,44.2 110.2,44.2 110.2,11.7 135,11.7 135,0.1 "/>
<polygon class="st0" points="278.6,0 278.6,44.2 333.1,44.2 333.1,32.6 293.9,32.6 293.9,0 "/>
<polygon class="st0" points="339.8,0 339.8,44.3 342.5,44.3 402.4,44.2 402.4,32.6 355.3,32.6 355.3,27.3 398.9,27.3 398.9,16.7 
	355.1,16.7 355.1,11.7 402.4,11.7 402.4,0.1 "/>
<g>
	<path class="st0" d="M475.6,37c0.2-2.8-0.2-6.7-1.8-9c-2.3-3.4-5.2-4.5-5.2-4.5c10.6-4.5,6.2-15.3,6.2-15.3
		c-2.3-7.4-12.9-8.1-15-8.1h-48.4v44.1h15.5V30.6c0,0,23.3,0,28.4,0c5.4,0,5.4,5.5,5.4,5.5c-0.1,7.9,0.9,8.1,0.9,8.1h15.2
		C475.6,42.9,475.4,39.8,475.6,37 M458,19.2l-31.1-0.1v-6.8l30.8,0.1c0,0,3.4,0.1,3.2,3.4C460.8,15.9,461,19.2,458,19.2"/>
</g>
<g>
	<path class="st0" d="M254.4,0.1h-50.7v44.1h50.4c5.8,0,19.6-4,19.6-22.1C273.7,3.4,259.4,0.1,254.4,0.1 M249.2,32.6H219v-21h30.7
		c0,0,8.1,0,8.1,11C257.8,32.8,249.2,32.6,249.2,32.6"/>
	<path class="st0" d="M172.4,0.1h-19.6l-29.2,44.1h17.6l4.9-6.6h32.8l4.6,6.6H201L172.4,0.1z M153.6,26.6l9-13.9l9.2,13.9H153.6z"/>
</g>
</svg>
